<svg xmlns="http://www.w3.org/2000/svg" viewBox="0 0 16 16" width="16" height="16">
  <path d="M 6.5,14
           L 9.5,14
           L 9,9
           C 11,9 13,7.5 14,5.5
           C 14.5,4.5 14,3.5 13,3
           C 11,2.5 9,4 8,7
           C 7,4 5,2.5 3,3
           C 2,3.5 1.5,4.5 2,5.5
           C 3,7.5 5,9 7,9
           Z"
        fill="#2D7A4F" />

  <path d="M 7,9
           C 5,9 3,7.5 2,5.5
           C 1.5,4.5 2,3.5 3,3
           C 5,2.5 7,4 8,7
           Z"
        fill="#52C480" />
</svg>
